<?xml version="1.0" standalone="no"?><!DOCTYPE svg PUBLIC "-//W3C//DTD SVG 1.1//EN" "http://www.w3.org/Graphics/SVG/1.1/DTD/svg11.dtd"><svg t="1511968984297" class="icon" style="" viewBox="0 0 1024 1024" version="1.1" xmlns="http://www.w3.org/2000/svg" p-id="1430" xmlns:xlink="http://www.w3.org/1999/xlink" width="200" height="200"><defs><style type="text/css"></style></defs><path d="M0 0" p-id="1431" fill="#707070"></path><path d="M1022.862222 534.050133c-107.474489-33.951289-232.914489-37.888-357.910755-10.513066a1570.827378 1570.827378 0 0 0-66.537245-142.7456c122.606933-45.431467 227.134578-112.9472 293.341867-211.114667C973.653333 260.539733 1024 380.347733 1024 511.931733c0 7.543467-0.773689 14.813867-1.137778 22.1184zM858.4192 136.192c-60.8256 95.402667-162.474667 160.324267-282.487467 203.810133A1579.064889 1579.064889 0 0 0 344.234667 28.808533C396.9024 10.478933 453.12 0 512 0c133.666133 0 255.1808 51.9168 346.4192 136.192zM294.980267 48.9472c89.361067 90.692267 167.2192 195.106133 231.2192 307.6096-163.2256 49.527467-352.3584 64.7168-517.7344 65.194667C38.058667 256.3072 147.182933 118.545067 294.980267 48.9472zM0 512c0-14.7456 0.955733-29.218133 2.184533-43.656533 173.499733-0.1024 373.4528-16.247467 546.440534-70.4512a1551.246222 1551.246222 0 0 1 65.194666 138.501689c-175.3088 50.870044-343.6544 165.000533-453.154133 347.147377C61.952 790.050133 0 658.261333 0 512z m196.1984 402.261333c103.799467-177.026844 266.1376-287.061333 434.346667-334.9504 49.2544 130.8672 80.384 266.581333 89.975466 399.872C656.736711 1007.707022 586.262756 1024 512 1024c-119.1936 0-228.693333-41.233067-315.8016-109.738667z m570.88 40.994134c-9.250133-131.163022-38.536533-262.280533-85.230933-388.334934 117.3504-24.541867 234.871467-19.592533 334.848 13.7216 0.7168 0.261689 1.399467 0.068267 2.1504 0.261689-21.777067 160.096711-117.441422 296.766578-251.767467 374.351645z" p-id="1432" fill="#707070"></path></svg>