<?xml version="1.0" encoding="utf-8"?>
<!-- Generator: Adobe Illustrator 18.0.0, SVG Export Plug-In . SVG Version: 6.00 Build 0)  -->
<!DOCTYPE svg PUBLIC "-//W3C//DTD SVG 1.1//EN" "http://www.w3.org/Graphics/SVG/1.1/DTD/svg11.dtd">
<svg version="1.1" id="图层_1" xmlns="http://www.w3.org/2000/svg" xmlns:xlink="http://www.w3.org/1999/xlink" x="0px" y="0px"
	 viewBox="0 0 200 200" enable-background="new 0 0 200 200" xml:space="preserve">
<g>
	<path d="M106.2,62.9c1.2,1.9,2.3,3.9,3.4,5.8c17-7.1,33.2-18.1,43.5-35.1c-6.1-4.9-12.8-8.9-20-11.9C122.6,17.2,111.5,15,100,15
		c-9,0-17.7,1.4-26.1,4.1C78.8,24.4,92.2,39.9,106.2,62.9z"/>
	<path d="M123.7,77.3c-2.4,1.2-5,2.4-7.6,3.5c2.4,4.6,4.6,9.2,6.7,13.9c19.9-4.2,40.8-2.6,62.2,4.6c-0.1-11.2-2.3-22.2-6.7-32.4
		c-3.7-8.7-8.8-16.7-15.1-23.7C154,57.3,140.7,68.7,123.7,77.3z"/>
	<path d="M94.6,70.3c-16.2-27-32.2-43.5-32.4-43.7c0,0-1.3-1.2-1.8-1.8c-7.5,4-14.4,9-20.5,15.1c-7.8,7.8-13.9,16.9-18.2,27
		c-2,4.7-3.6,9.6-4.7,14.6c6.5,0.5,29.2,1.7,54.9-2.4c7.7-1.2,16.1-3,24.6-5.7C95.9,72.4,95.3,71.3,94.6,70.3z"/>
	<path d="M182.8,113.1L182.8,113.1c-19-6.8-37.3-8.6-54.7-5.5c0.8,2.1,1.5,4.1,2.3,6.2c7.1,19.9,11.3,39.9,12.7,59.6
		c6.2-3.6,11.9-8,17-13.2c7.8-7.8,13.9-16.9,18.2-27c2.7-6.4,4.6-13,5.6-19.8C183.7,113.2,182.9,113.1,182.8,113.1z"/>
	<path d="M73.7,118.5c11.3-9,23.3-15.7,35.8-20.1c-2-4.5-4.1-8.7-6.2-12.8c-9.1,3-19,5.3-29.5,7c-15.3,2.4-29.5,3.1-40.2,3.1
		c-9.1,0-15.6-0.5-18.4-0.7C15,96.7,15,98.3,15,100c0,11.5,2.2,22.6,6.7,33.1c4,9.4,9.6,17.9,16.6,25.3
		C43.3,150.3,55.1,133.3,73.7,118.5z"/>
	<path d="M129.7,178.4c-1.1-24.7-7.2-47.6-14.9-67.4c-11.3,3.8-22.2,9.9-32.6,18.2c-18.8,15-30.2,32.7-33.6,38.5
		c5.6,4.3,11.7,7.8,18.3,10.6c10.5,4.4,21.6,6.7,33.1,6.7c10.3,0,20.3-1.8,29.8-5.4C129.8,179.6,129.7,178.6,129.7,178.4z"/>
</g>
</svg>
