<?xml version="1.0" encoding="utf-8"?>
<!-- Generator: Adobe Illustrator 18.0.0, SVG Export Plug-In . SVG Version: 6.00 Build 0)  -->
<!DOCTYPE svg PUBLIC "-//W3C//DTD SVG 1.1//EN" "http://www.w3.org/Graphics/SVG/1.1/DTD/svg11.dtd">
<svg version="1.1" id="图层_1" xmlns="http://www.w3.org/2000/svg" xmlns:xlink="http://www.w3.org/1999/xlink" x="0px" y="0px"
	 viewBox="0 0 200 200" enable-background="new 0 0 200 200" xml:space="preserve">
<path d="M100,13.4c-47.9,0-86.6,38.8-86.6,86.6c0,36.7,22.9,68,55.1,80.7c-0.7-6.8-1.4-17.4,0.3-24.8c1.6-6.8,10.2-43,10.2-43
	s-2.6-5.2-2.6-12.8c0-12,7-21.1,15.7-21.1c7.4,0,11,5.5,11,12.2c0,7.4-4.7,18.6-7.2,28.8c-2.1,8.6,4.3,15.7,12.8,15.7
	c15.4,0,27.2-16.2,27.2-39.7c0-20.7-14.9-35.2-36.2-35.2c-24.7,0-39.1,18.5-39.1,37.6c0,7.5,2.9,15.4,6.4,19.8
	c0.7,0.9,0.8,1.6,0.6,2.5c-0.7,2.7-2.1,8.6-2.4,9.8c-0.4,1.6-1.2,1.9-2.9,1.2c-10.8-5-17.6-20.9-17.6-33.6
	c0-27.3,19.8-52.4,57.2-52.4c30,0,53.4,21.4,53.4,50c0,29.8-18.8,53.9-45,53.9c-8.8,0-17-4.6-19.8-10c0,0-4.3,16.5-5.4,20.6
	c-2,7.5-7.2,16.9-10.8,22.7c8.1,2.5,16.7,3.9,25.7,3.9c47.9,0,86.6-38.8,86.6-86.6C186.6,52.2,147.8,13.4,100,13.4L100,13.4z"/>
</svg>
