<?xml version="1.0" standalone="no"?><!DOCTYPE svg PUBLIC "-//W3C//DTD SVG 1.1//EN" "http://www.w3.org/Graphics/SVG/1.1/DTD/svg11.dtd"><svg t="1511970693714" class="icon" style="" viewBox="0 0 1024 1024" version="1.1" xmlns="http://www.w3.org/2000/svg" p-id="21456" xmlns:xlink="http://www.w3.org/1999/xlink" width="200" height="200"><defs><style type="text/css"></style></defs><path d="M512 68.416c-244.992 0-443.616 198.592-443.616 443.616 0 188 116.992 348.384 282.016 412.992-3.808-35.008-7.392-88.992 1.6-127.2 8-34.592 52-220.384 52-220.384s-13.184-26.592-13.184-65.792c0-61.6 35.808-107.808 80.192-107.808 37.792 0 56.192 28.384 56.192 62.4 0 38.016-24.192 95.008-36.8 147.616-10.592 44.192 22.016 80.192 65.6 80.192 78.784 0 139.392-83.2 139.392-203.2 0-106.208-76.384-180.416-185.184-180.416-126.208 0-200.192 94.592-200.192 192.608 0 38.208 14.592 79.008 32.992 101.216 3.616 4.384 4.192 8.192 3.008 12.8-3.392 14.016-10.816 44.192-12.384 50.4-2.016 8.192-6.4 9.792-14.816 6.016-55.392-25.792-90.016-106.784-90.016-171.808 0-140 101.6-268.384 292.992-268.384 153.792 0 273.408 109.6 273.408 256.192 0 152.8-96.384 276-230.208 276-44.992 0-87.2-23.392-101.6-51.008 0 0-22.208 84.608-27.616 105.408-10.016 38.592-36.992 86.784-55.2 116.192 41.6 12.8 85.6 19.808 131.392 19.808 244.992 0 443.616-198.592 443.616-443.616 0-245.184-198.592-443.808-443.616-443.808z" p-id="21457" fill="#707070"></path></svg>