<?xml version="1.0" encoding="utf-8"?>
<!-- Generator: Adobe Illustrator 18.0.0, SVG Export Plug-In . SVG Version: 6.00 Build 0)  -->
<!DOCTYPE svg PUBLIC "-//W3C//DTD SVG 1.1//EN" "http://www.w3.org/Graphics/SVG/1.1/DTD/svg11.dtd">
<svg version="1.1" id="图层_1" xmlns="http://www.w3.org/2000/svg" xmlns:xlink="http://www.w3.org/1999/xlink" x="0px" y="0px"
	 viewBox="0 0 200 200" enable-background="new 0 0 200 200" xml:space="preserve">
<path d="M185.7,102.1c0,18.7-5.4,35.5-16.3,50.4c-10.9,14.9-25,25.2-42.2,31c-2,0.4-3.5,0.1-4.4-0.8c-0.9-0.9-1.4-2-1.4-3.3v-23.6
	c0-7.2-1.9-12.5-5.8-15.8c4.2-0.4,8.1-1.1,11.4-2s6.9-2.3,10.5-4.3c3.6-2,6.6-4.5,9-7.4s4.4-6.8,5.9-11.7c1.5-4.9,2.3-10.5,2.3-16.8
	c0-9-2.9-16.7-8.8-23c2.8-6.8,2.5-14.4-0.9-22.8c-2.1-0.7-5.1-0.3-9,1.2c-3.9,1.5-7.4,3.1-10.3,4.9l-4.2,2.7
	c-6.9-1.9-14.1-2.9-21.4-2.9c-7.4,0-14.5,1-21.4,2.9c-1.2-0.8-2.8-1.8-4.7-3c-2-1.2-5.1-2.6-9.3-4.3c-4.2-1.7-7.4-2.2-9.6-1.5
	c-3.3,8.4-3.5,16-0.8,22.8c-5.9,6.3-8.8,14-8.8,23c0,6.3,0.8,11.9,2.3,16.7c1.5,4.8,3.5,8.7,5.9,11.7c2.4,3,5.4,5.5,9,7.5
	c3.6,2,7.1,3.5,10.5,4.3c3.4,0.9,7.2,1.6,11.4,2c-3,2.7-4.8,6.5-5.5,11.5c-1.6,0.7-3.2,1.3-5,1.7s-3.9,0.6-6.4,0.6
	c-2.5,0-4.9-0.8-7.3-2.4c-2.4-1.6-4.5-3.9-6.2-7c-1.4-2.4-3.2-4.3-5.4-5.8c-2.2-1.5-4-2.4-5.5-2.7l-2.2-0.3c-1.6,0-2.6,0.2-3.2,0.5
	c-0.6,0.3-0.8,0.8-0.6,1.3c0.2,0.5,0.6,1,1,1.6c0.4,0.5,0.9,1,1.5,1.3l0.8,0.6c1.6,0.7,3.3,2.2,4.9,4.2c1.6,2.1,2.8,4,3.5,5.7
	l1.1,2.6c1,2.8,2.6,5.1,4.9,6.9c2.3,1.7,4.8,2.9,7.5,3.3c2.7,0.5,5.3,0.7,7.8,0.8c2.5,0,4.6-0.1,6.2-0.4l2.6-0.4
	c0,2.8,0,6.1,0.1,9.9c0,3.8,0.1,5.8,0.1,6c0,1.3-0.5,2.5-1.5,3.3s-2.5,1.2-4.5,0.8c-17.3-5.7-31.3-16.1-42.2-31
	s-16.4-31.7-16.3-50.4c0-15.6,3.8-29.9,11.5-43S43.8,35.5,57,27.9s27.5-11.5,43-11.5s29.9,3.8,43,11.5c13.1,7.7,23.5,18.1,31.2,31.2
	C181.9,72.2,185.7,86.5,185.7,102.1L185.7,102.1z"/>
</svg>
